Coordinates
version=1
nRows=36
nColumns=30
inDegrees=yes

Units are S.I. units (second, meters, Newtons, ...)
Angles are in degrees.

endheader
time	floatyaw	floatroll	floatpitch	floatx	floaty	floatz	pro_sup_l	deviation_l	flexion_l	cmc_flexion_l	cmc_abduction_l	mp_flexion_l	ip_flexion_l	2mcp_flexion_l	2mcp_abduction_l	2pm_flexion_l	2md_flexion_l	3mcp_flexion_l	3mcp_abduction_l	3pm_flexion_l	3md_flexion_l	4mcp_flexion_l	4mcp_abduction_l	4pm_flexion_l	4md_flexion_l	5mcp_flexion_l	5mcp_abduction_l	5pm_flexion_l	5md_flexion_l
-0.995000	-160.147433	-5.066637	-73.570646	0.083856	-0.182764	-0.015901	101.999782	2.938473	-1.062777	15.954044	4.903555	-25.773942	-42.058751	31.227998	6.494932	42.110591	28.881616	23.960288	3.922111	45.295898	29.785711	12.594271	-4.373795	53.073149	36.980735	0.747469	-7.297263	63.127989	42.872825
-0.985000	-160.147433	-5.066637	-73.570646	0.083851	-0.182759	-0.015894	102.000617	2.939570	-1.061487	15.938580	4.905220	-25.796369	-42.068598	31.229159	6.501573	42.131017	28.901273	23.963326	3.915417	45.331349	29.803228	12.599146	-4.372944	53.081323	36.977786	0.757131	-7.288765	63.135040	42.881829
-0.975000	-160.147433	-5.066637	-73.570646	0.083853	-0.182743	-0.015885	102.002878	2.942846	-1.052168	15.928012	4.921934	-25.812161	-42.079194	31.228680	6.508417	42.143391	28.914555	23.963923	3.910044	45.357463	29.811596	12.602460	-4.368513	53.076757	36.969497	0.770225	-7.283139	63.138592	42.888345
-0.965000	-160.147433	-5.066637	-73.570646	0.083858	-0.182717	-0.015872	102.001055	2.946942	-1.035370	15.918133	4.952412	-25.817295	-42.085563	31.230668	6.513010	42.143979	28.918384	23.961787	3.907426	45.367989	29.807989	12.604349	-4.362407	53.060990	36.958002	0.785338	-7.281205	63.135323	42.889575
-0.955000	-160.147433	-5.066637	-73.570646	0.083866	-0.182687	-0.015858	101.991771	2.950726	-1.014382	15.904344	4.988296	-25.810320	-42.084148	31.240469	6.512870	42.133602	28.912594	23.958570	3.908673	45.357961	29.791060	12.605946	-4.357302	53.038661	36.946309	0.800435	-7.282437	63.123786	42.884127
-0.945000	-160.147433	-5.066637	-73.570646	0.083870	-0.182660	-0.015846	101.974745	2.953296	-0.994709	15.883642	5.018121	-25.793708	-42.073834	31.260945	6.507196	42.117230	28.900207	23.956840	3.914258	45.326774	29.762353	12.608309	-4.355612	53.016778	36.937654	0.813199	-7.285698	63.105878	42.873341
-0.935000	-160.147433	-5.066637	-73.570646	0.083868	-0.182644	-0.015838	101.952141	2.953940	-0.981976	15.855748	5.033368	-25.773966	-42.056399	31.289242	6.497988	42.101251	28.886422	23.958106	3.923798	45.280162	29.727208	12.610989	-4.358511	53.003179	36.934955	0.821258	-7.290026	63.086988	42.861714
-0.925000	-160.147433	-5.066637	-73.570646	0.083856	-0.182643	-0.015837	101.927318	2.952415	-0.979188	15.823018	5.033025	-25.759513	-42.035837	31.316718	6.489657	42.090319	28.876809	23.961313	3.936084	45.229514	29.694148	12.611502	-4.365456	53.004399	36.940220	0.822886	-7.294994	63.074433	42.855674
-0.915000	-160.147433	-5.066637	-73.570646	0.083838	-0.182654	-0.015842	101.903744	2.949326	-0.985081	15.789526	5.023769	-25.756862	-42.016568	31.332806	6.486995	42.085914	28.875545	23.962958	3.949413	45.188331	29.672449	12.606417	-4.374423	53.023428	36.953817	0.818116	-7.300634	63.074761	42.860909
-0.905000	-160.147433	-5.066637	-73.570646	0.083815	-0.182672	-0.015850	101.884128	2.946101	-0.994827	15.759815	5.015688	-25.767265	-42.001414	31.330742	6.492518	42.087205	28.884362	23.958879	3.962074	45.167431	29.668841	12.593511	-4.382749	53.058255	36.973949	0.809512	-7.307241	63.090976	42.879404
-0.895000	-160.147433	-5.066637	-73.570646	0.083792	-0.182688	-0.015855	101.869683	2.944294	-1.002779	15.737675	5.016502	-25.786087	-41.990685	31.311534	6.504898	42.092983	28.902344	23.946655	3.972742	45.171292	29.684971	12.573489	-4.388185	53.102150	36.996888	0.801657	-7.315175	63.120857	42.907815
-0.885000	-160.147433	-5.066637	-73.570646	0.083772	-0.182697	-0.015856	101.859687	2.944571	-1.005467	15.725123	5.027893	-25.805500	-41.983051	31.283714	6.519528	42.102904	28.926357	23.927219	3.980663	45.197014	29.716771	12.550036	-4.389696	53.145927	37.018132	0.799091	-7.324601	63.157332	42.938346
-0.875000	-160.147433	-5.066637	-73.570646	0.083756	-0.182698	-0.015852	101.851749	2.946104	-1.003046	15.721886	5.045710	-25.818810	-41.977609	31.259249	6.530838	42.117266	28.951797	23.904856	3.985644	45.235881	29.755812	12.528235	-4.387689	53.181177	37.033873	0.803715	-7.335179	63.191133	42.961921
-0.865000	-160.147433	-5.066637	-73.570646	0.083745	-0.182696	-0.015846	101.842973	2.946953	-0.998593	15.725536	5.063109	-25.823834	-41.975712	31.248216	6.534916	42.135908	28.973528	23.885566	3.987882	45.276701	29.792024	12.512463	-4.383597	53.202934	37.041973	0.813525	-7.345994	63.214714	42.972022
-0.855000	-160.147433	-5.066637	-73.570646	0.083739	-0.182697	-0.015842	101.831557	2.945270	-0.995973	15.732205	5.074393	-25.823532	-41.981062	31.254970	6.531073	42.157370	28.987061	23.874494	3.987763	45.309825	29.816967	12.504915	-4.379123	53.210817	37.042198	0.823787	-7.355804	63.225426	42.967189
-0.845000	-160.147433	-5.066637	-73.570646	0.083736	-0.182702	-0.015842	101.817787	2.940503	-0.997567	15.737495	5.077721	-25.823681	-41.997351	31.277132	6.521771	42.179136	28.989983	23.873554	3.985781	45.330457	29.826652	12.505118	-4.375584	53.208609	37.036028	0.829873	-7.363445	63.226110	42.951069
-0.835000	-160.147433	-5.066637	-73.570646	0.083735	-0.182711	-0.015846	101.803646	2.933736	-1.002963	15.737362	5.076002	-25.828914	-42.024497	31.307152	6.511168	42.198785	28.983170	23.880412	3.982646	45.339741	29.822786	12.510255	-4.373623	53.202645	37.026331	0.829771	-7.368106	63.222800	42.930306
-0.825000	-160.147433	-5.066637	-73.570646	0.083735	-0.182719	-0.015851	101.791286	2.927039	-1.009097	15.728985	5.075931	-25.839550	-42.056238	31.335444	6.503104	42.215011	28.970872	23.889469	3.979420	45.342844	29.811648	12.516123	-4.373292	53.199389	37.016742	0.824712	-7.369408	63.221031	42.911576
-0.815000	-160.147433	-5.066637	-73.570646	0.083736	-0.182720	-0.015854	101.781433	2.922300	-1.011715	15.711590	5.085324	-25.851329	-42.081670	31.353975	6.499502	42.227446	28.958978	23.894502	3.977443	45.344875	29.800835	12.518596	-4.374325	53.202878	37.010595	0.817740	-7.367319	63.222959	42.899198
-0.805000	-160.147433	-5.066637	-73.570646	0.083737	-0.182712	-0.015852	101.772714	2.920249	-1.007445	15.686833	5.109475	-25.858461	-42.090600	31.359230	6.499837	42.235416	28.952035	23.891698	3.977925	45.346962	29.795411	12.515201	-4.376409	53.213081	37.009591	0.811424	-7.362048	63.226619	42.894109
-0.795000	-160.147433	-5.066637	-73.570646	0.083741	-0.182697	-0.015843	101.762261	2.920107	-0.995543	15.658398	5.148170	-25.858055	-42.079596	31.353404	6.501787	42.237012	28.950795	23.881546	3.981425	45.344889	29.795473	12.506188	-4.379339	53.226142	37.012930	0.806385	-7.354034	63.227311	42.894270
-0.785000	-160.147433	-5.066637	-73.570646	0.083748	-0.182678	-0.015831	101.747257	2.919991	-0.978534	15.630872	5.195020	-25.853001	-42.054845	31.343180	6.502671	42.229759	28.951975	23.868593	3.987576	45.331299	29.796492	12.494482	-4.383004	53.236562	37.017601	0.801579	-7.344129	63.220280	42.896184
-0.775000	-160.147433	-5.066637	-73.570646	0.083757	-0.182662	-0.015819	101.726693	2.917877	-0.961406	15.608356	5.239496	-25.851162	-42.029852	31.336568	6.500900	42.212686	28.950434	23.859221	3.995221	45.300357	29.792278	12.484415	-4.387257	53.240235	37.019871	0.795849	-7.333888	63.203525	42.896876
-0.765000	-160.147433	-5.066637	-73.570646	0.083766	-0.182656	-0.015812	101.702472	2.912688	-0.949617	15.593165	5.270745	-25.860988	-42.018957	31.339263	6.496747	42.188263	28.942419	23.858561	4.002866	45.252211	29.778895	12.479764	-4.391773	53.236622	37.017227	0.789415	-7.325571	63.179387	42.895357
-0.755000	-160.147433	-5.066637	-73.570646	0.083773	-0.182661	-0.015812	101.679041	2.904903	-0.946688	15.584903	5.281753	-25.886122	-42.030070	31.352139	6.492076	42.162696	28.927978	23.868104	4.009156	45.194491	29.757286	12.482003	-4.396010	53.228844	37.009642	0.784177	-7.321588	63.153952	42.892798
-0.745000	-160.147433	-5.066637	-73.570646	0.083776	-0.182676	-0.015818	101.661452	2.896258	-0.952512	15.580381	5.272406	-25.922665	-42.060712	31.370970	6.489239	42.144076	28.911255	23.885145	4.013222	45.139561	29.732991	12.489601	-4.399307	53.221740	36.999475	0.782617	-7.323568	63.134608	42.891540
-0.735000	-160.147433	-5.066637	-73.570646	0.083774	-0.182693	-0.015829	101.652774	2.888719	-0.963336	15.574935	5.249855	-25.961169	-42.099931	31.388634	6.489738	42.139111	28.898487	23.904342	4.014876	45.098844	29.713120	12.498757	-4.401061	53.219106	36.990163	0.786047	-7.331674	63.127412	42.893881
-0.725000	-160.147433	-5.066637	-73.570646	0.083769	-0.182707	-0.015840	101.652540	2.883439	-0.973599	15.564881	5.225333	-25.992010	-42.135057	31.398918	6.493415	42.150003	28.894768	23.920536	4.014680	45.077524	29.702474	12.505331	-4.400869	53.221749	36.984496	0.793495	-7.344662	63.135735	42.901387
-0.715000	-160.147433	-5.066637	-73.570646	0.083762	-0.182713	-0.015848	101.657224	2.880366	-0.978730	15.549642	5.208542	-26.010285	-42.158831	31.399896	6.498635	42.173235	28.901422	23.931213	4.013809	45.072768	29.701266	12.507009	-4.398630	53.227432	36.983409	0.802101	-7.360599	63.160223	42.914618
-0.705000	-160.147433	-5.066637	-73.570646	0.083755	-0.182709	-0.015852	101.662309	2.878587	-0.977318	15.531932	5.202710	-26.017016	-42.172063	31.394673	6.503367	42.201055	28.915514	23.937170	4.013658	45.076234	29.705722	12.504379	-4.394633	53.232694	36.985861	0.808673	-7.377589	63.199065	42.932825
-0.695000	-160.147433	-5.066637	-73.570646	0.083748	-0.182699	-0.015853	101.664352	2.876960	-0.971363	15.515833	5.203356	-26.016567	-42.180473	31.388878	6.506474	42.224789	28.931595	23.941074	4.015237	45.078920	29.710899	12.500088	-4.389681	53.235458	36.989784	0.811032	-7.393953	63.248036	42.953699
-0.685000	-160.147433	-5.066637	-73.570646	0.083742	-0.182687	-0.015852	101.661747	2.874557	-0.964604	15.504224	5.201561	-26.012967	-42.188833	31.386634	6.508339	42.238068	28.944378	23.945057	4.018683	45.075370	29.713743	12.496469	-4.385100	53.236838	36.993528	0.808068	-7.407910	63.300793	42.973733
-0.675000	-160.147433	-5.066637	-73.570646	0.083737	-0.182680	-0.015851	101.654030	2.870776	-0.960034	15.497318	5.189705	-26.008055	-42.197123	31.387905	6.510409	42.238432	28.950789	23.948973	4.023190	45.065232	29.714553	12.493252	-4.382467	53.240990	36.996957	0.798772	-7.417421	63.350005	42.989466
-0.665000	-160.147433	-5.066637	-73.570646	0.083732	-0.182680	-0.015852	101.640797	2.865330	-0.958165	15.492884	5.166375	-26.002136	-42.201020	31.389008	6.514011	42.227214	28.950656	23.950340	4.027446	45.052199	29.716348	12.487106	-4.383027	53.252932	37.001523	0.781708	-7.420702	63.389090	42.998987
-0.655000	-160.147433	-5.066637	-73.570646	0.083729	-0.182685	-0.015854	101.621500	2.858347	-0.956980	15.487592	5.137899	-25.995551	-42.195359	31.385616	6.519342	42.208618	28.946304	23.945859	4.030286	45.041687	29.722910	12.473699	-4.387057	53.275517	37.009249	0.756006	-7.417165	63.413806	43.002715
-0.645000	-160.147433	-5.066637	-73.570646	0.083727	-0.182694	-0.015854	101.596458	2.850612	-0.953452	15.478620	5.115643	-25.989167	-42.177536	31.375943	6.525393	42.188681	28.941613	23.933671	4.031173	45.038545	29.736697	12.451139	-4.393594	53.307336	37.021167	0.723406	-7.408038	63.423100	43.002886
